<?xml version="1.0" encoding="UTF-8"?>
<svg version="1.1" xmlns="http://www.w3.org/2000/svg" width="776" height="246">
<path d="M0 0 C256.08 0 512.16 0 776 0 C776 81.18 776 162.36 776 246 C519.92 246 263.84 246 0 246 C0 164.82 0 83.64 0 0 Z " fill="#192028" transform="translate(0,0)"/>
<path d="M0 0 C5.28 0 10.56 0 16 0 C16 28.05 16 56.1 16 85 C10.39 85 4.78 85 -1 85 C-1.33 83.02 -1.66 81.04 -2 79 C-3.299375 80.175625 -3.299375 80.175625 -4.625 81.375 C-10.13265251 86.35811418 -16.68668657 86.38666437 -23.75 86.2421875 C-31.25268324 85.68309332 -36.64042013 83.32716092 -42.140625 78.16796875 C-48.54874246 70.69631919 -51.13509713 63.22391616 -51.25 53.5625 C-51.27578125 52.26441406 -51.3015625 50.96632812 -51.328125 49.62890625 C-50.98218123 45.80293292 -50.16141819 44.09857445 -48 41 C-47.4121875 39.3603125 -47.4121875 39.3603125 -46.8125 37.6875 C-44.22276703 31.42555309 -38.09947798 25.80246286 -32 23 C-23.29756145 20.93426964 -14.20354167 21.24820961 -6 25 C-3.525 26.98 -3.525 26.98 -1 29 C-0.67 19.43 -0.34 9.86 0 0 Z " fill="#EEEFEF" transform="translate(390,81)"/>
<path d="M0 0 C4.95 0 9.9 0 15 0 C15 27.72 15 55.44 15 84 C9.72 84 4.44 84 -1 84 C-1.33 82.35 -1.66 80.7 -2 79 C-2.70125 79.598125 -3.4025 80.19625 -4.125 80.8125 C-11.84098995 86.68336192 -18.56395186 86.73053276 -28 86 C-34.91919708 84.70669214 -40.3441441 80.58329764 -44.4765625 75.0078125 C-45.74940504 73.03527874 -46.92608106 71.08750536 -48 69 C-48.36480469 68.30519531 -48.72960937 67.61039062 -49.10546875 66.89453125 C-51.56255886 58.94385976 -51.72391332 47.58963937 -48.796875 39.796875 C-47.34203256 37.6366544 -45.83340829 35.84255247 -44 34 C-43.401875 33.113125 -42.80375 32.22625 -42.1875 31.3125 C-37.69771023 26.56615081 -31.83183437 22.27597699 -25.1796875 21.796875 C-15.07663947 21.65356935 -8.95801251 22.63359 -1 29 C-0.67 19.43 -0.34 9.86 0 0 Z " fill="#F3F4F4" transform="translate(600,81)"/>
<path d="M0 0 C0.94617188 0.09796875 1.89234375 0.1959375 2.8671875 0.296875 C8.76204495 1.19274999 12.41888687 3.21560219 17 7 C17 5.02 17 3.04 17 1 C21.95 1 26.9 1 32 1 C32 21.13 32 41.26 32 62 C27.05 62 22.1 62 17 62 C17 59.69 17 57.38 17 55 C14.02397387 56.71346959 11.69070104 58.29555234 9.1875 60.6875 C5.41415072 63.44462718 1.52168909 63.4819277 -3 63.5 C-3.67651611 63.50604248 -4.35303223 63.51208496 -5.05004883 63.51831055 C-12.05471773 63.34580687 -17.41807852 60.80152724 -22.875 56.5625 C-23.63554687 55.98628906 -24.39609375 55.41007812 -25.1796875 54.81640625 C-27.1962828 52.8041384 -27.37199931 51.68898478 -28 49 C-28.99 48.67 -29.98 48.34 -31 48 C-35.20474772 40.37801583 -36.55811322 31.82104095 -34.3046875 23.40234375 C-33.35669024 20.82522515 -32.26085058 18.43869846 -31 16 C-30.59910156 15.21496094 -30.19820312 14.42992188 -29.78515625 13.62109375 C-22.90279691 1.83131297 -13.10825779 -1.39902519 0 0 Z " fill="#F1F2F2" transform="translate(270,104)"/>
<path d="M0 0 C8.83421133 -0.32929579 15.93221865 1.35763265 22.9140625 6.94921875 C27.72588047 11.43114849 33.62594815 17.71923742 34.4387207 24.48583984 C34.46704735 27.18243094 34.48579798 29.87745761 34.4765625 32.57421875 C34.49267578 33.5075 34.50878906 34.44078125 34.52539062 35.40234375 C34.53138238 43.8627053 31.95189083 49.13577955 26.1640625 55.19921875 C24.51609014 55.91084318 22.85240842 56.58953828 21.1640625 57.19921875 C20.8340625 58.18921875 20.5040625 59.17921875 20.1640625 60.19921875 C12.41566328 65.67621962 1.2012613 65.53692144 -7.8359375 64.19921875 C-18.98974642 60.79044129 -24.51772019 54.09572458 -29.85546875 44.21484375 C-32.89791513 37.96025278 -32.47971408 30.97655897 -31.8359375 24.19921875 C-30.60370196 21.08770507 -28.89079757 18.80826835 -26.8359375 16.19921875 C-26.124375 14.59046875 -26.124375 14.59046875 -25.3984375 12.94921875 C-23.43855449 9.49982465 -21.27516792 8.10177175 -17.8359375 6.19921875 C-17.1759375 6.19921875 -16.5159375 6.19921875 -15.8359375 6.19921875 C-15.5059375 5.20921875 -15.1759375 4.21921875 -14.8359375 3.19921875 C-10.58575105 0.1390845 -5.03583947 0.35375732 0 0 Z " fill="#F3F4F4" transform="translate(508.8359375,102.80078125)"/>
<path d="M0 0 C19.14 0 38.28 0 58 0 C58 18.87404772 56.80257534 26.14563911 46.43212891 40.59228516 C44.6992173 42.29565514 43.36694372 42.61277382 41 43 C41 43.66 41 44.32 41 45 C39.61217515 45.8466034 38.21430603 46.67675339 36.8125 47.5 C36.03519531 47.9640625 35.25789063 48.428125 34.45703125 48.90625 C31.75896614 50.10729647 29.9193018 50.20741043 27 50 C28.15511641 53.46534923 28.9450773 53.88952125 31.875 55.875 C35.27779381 58.3218853 36.88020544 60.3786843 39 64 C40.84744671 65.7546324 42.78124754 67.38214244 44.7265625 69.02734375 C47.2395591 71.20786486 49.62693653 73.48060956 52 75.8125 C52.763125 76.56144531 53.52625 77.31039062 54.3125 78.08203125 C56 80 56 80 56 82 C56.99 82.33 57.98 82.66 59 83 C59 83.66 59 84.32 59 85 C34.27822984 86.1188658 34.27822984 86.1188658 27 80 C26.33203125 77.9296875 26.33203125 77.9296875 26 76 C25.01979625 74.9805881 24.02196992 73.97753644 23 73 C23 72.34 23 71.68 23 71 C22.4225 70.71125 21.845 70.4225 21.25 70.125 C20.13625 69.568125 20.13625 69.568125 19 69 C18.319375 68.731875 17.63875 68.46375 16.9375 68.1875 C14.31979306 66.58309897 13.53588663 64.65826533 12 62 C8.76159136 57.71663973 5.76717646 54.58789579 1 52 C-0.59412284 48.81175432 -0.10174735 45.37103338 -0.0625 41.875 C-0.05798828 41.12089844 -0.05347656 40.36679688 -0.04882812 39.58984375 C-0.03703499 37.72652873 -0.01909942 35.86325445 0 34 C0.65484375 33.9906543 1.3096875 33.98130859 1.984375 33.97167969 C4.99030905 33.9175474 7.99475775 33.83398611 11 33.75 C12.54494141 33.72873047 12.54494141 33.72873047 14.12109375 33.70703125 C21.89618158 33.45941699 27.73599723 32.34989758 33.375 26.5625 C35.29284466 23.71157789 35.29284466 23.71157789 37 19 C18.685 18.505 18.685 18.505 0 18 C0 12.06 0 6.12 0 0 Z " fill="#179DDC" transform="translate(115,99)"/>
<path d="M0 0 C8.9208713 9.58167658 9 16.22931976 9 30 C-6.18 30 -21.36 30 -37 30 C-34.30388753 36.99467868 -34.30388753 36.99467868 -29 41 C-21.35429036 42.14776019 -14.86136693 41.3576902 -8 38 C-5.07216658 37.93028968 -3.74441801 38.34763368 -1.546875 40.2734375 C0.47948815 42.4668086 1.97502521 44.12588251 2.0625 47.1875 C-0.72454062 51.94186342 -5.93755841 53.51775119 -11 55 C-14.32999518 55.55596028 -17.63017787 55.77666758 -21 55.9375 C-21.85078125 56.00517578 -22.7015625 56.07285156 -23.578125 56.14257812 C-29.76207814 56.4697965 -33.77201355 55.26333394 -39 52 C-40.14855469 51.33097656 -40.14855469 51.33097656 -41.3203125 50.6484375 C-47.19668019 46.50190965 -51.23936446 41.02107172 -53.6328125 34.1953125 C-55.53093508 22.8469626 -54.76817105 12.6089401 -48 3 C-45.23464243 -0.00858214 -42.55705514 -1.99345608 -39 -4 C-38.01 -4.66 -37.02 -5.32 -36 -6 C-22.35451132 -8.45128539 -11.12050116 -9.48698121 0 0 Z " fill="#F1F2F3" transform="translate(678,111)"/>
<path d="M0 0 C6.50620719 -0.10294521 13.01219831 -0.17209924 19.51904297 -0.21972656 C21.7242009 -0.23961886 23.9293077 -0.26674256 26.13427734 -0.30175781 C63.85790008 -0.88502438 63.85790008 -0.88502438 78 12 C81 15.5 81 15.5 81 18 C60.21 18 39.42 18 18 18 C18 40.11 18 62.22 18 85 C12.34110971 82.73644388 12.34110971 82.73644388 9.6875 79.5 C9.17574219 78.8915625 8.66398437 78.283125 8.13671875 77.65625 C7 76 7 76 7 74 C6.4225 73.7525 5.845 73.505 5.25 73.25 C2.36527991 71.64737773 0.96238879 70.72829198 -1 68 C-1.58682097 64.26847728 -1.48765647 60.56633381 -1.42578125 56.796875 C-1.42249313 55.68628723 -1.41920502 54.57569946 -1.41581726 53.43145752 C-1.40005992 49.87057881 -1.35608094 46.31063515 -1.3125 42.75 C-1.30100452 40.39844532 -1.29122058 38.04688161 -1.28320312 35.6953125 C-1.21937331 23.76573971 -0.96541512 11.8935512 0 0 Z " fill="#169CDD" transform="translate(84,66)"/>
<path d="M0 0 C2.386744 1.86282458 4.50366209 3.78278995 6.5625 6 C4.56587582 10.52437006 1.6252082 13.25325598 -2.4375 16 C-5 16.6875 -5 16.6875 -7.4375 16 C-9.61279844 14.47404438 -11.46284496 12.79913015 -13.4375 11 C-16.13414208 9.65167896 -18.30337521 9.83089318 -21.3125 9.8125 C-22.36179687 9.79832031 -23.41109375 9.78414062 -24.4921875 9.76953125 C-28.29467821 10.06707363 -30.42896057 10.9526706 -33.0625 13.6875 C-36.71960354 19.83808323 -37.45646912 26.72032971 -35.8125 33.625 C-32.9482813 38.58762933 -32.9482813 38.58762933 -28.4375 42 C-21.85368381 43.13184249 -15.5447299 43.28211685 -9.875 39.4375 C-9.31683594 38.96183594 -8.75867188 38.48617187 -8.18359375 37.99609375 C-6.4375 37 -6.4375 37 -3.9921875 37.09375 C-0.87424566 38.19980888 0.62311785 39.65794787 2.875 42.0625 C3.57238281 42.79597656 4.26976562 43.52945313 4.98828125 44.28515625 C5.50777344 44.85105469 6.02726562 45.41695312 6.5625 46 C0.12639303 53.50879146 -9.28581728 57.3959363 -19.02734375 58.21875 C-30.36982955 58.60054475 -37.17307945 55.77561765 -45.41577148 48.2878418 C-50.45649389 43.43484634 -52.52583826 39.38253533 -52.90625 32.4453125 C-52.932682 30.33868173 -52.94263225 28.23179033 -52.9375 26.125 C-52.96585937 25.07441406 -52.99421875 24.02382812 -53.0234375 22.94140625 C-53.04474895 14.42748196 -50.83703337 9.92549891 -45.3671875 3.609375 C-31.88510068 -8.59114463 -15.4614095 -8.99572916 0 0 Z " fill="#F1F1F2" transform="translate(467.4375,109)"/>
<path d="M0 0 C4.95 0 9.9 0 15 0 C15 2.31 15 4.62 15 7 C15.67095703 6.36771484 15.67095703 6.36771484 16.35546875 5.72265625 C22.50461971 0.15039792 25.45934587 0 34 0 C34 4.62 34 9.24 34 14 C31.4609375 14.71614583 28.921875 15.43229167 26.3828125 16.1484375 C23.85430274 16.8604315 23.85430274 16.8604315 22 19 C21.01 19 20.02 19 19 19 C16.17204498 28.26704148 15.47394142 37.10532685 15.3125 46.75 C15.27922686 48.14065502 15.24472851 49.53128129 15.20898438 50.921875 C15.12733946 54.28098012 15.06197598 57.64047443 15 61 C10.05 61 5.1 61 0 61 C0 40.87 0 20.74 0 0 Z " fill="#F4F5F6" transform="translate(200,104)"/>
<path d="M0 0 C4.62058271 2.65661587 8.70248498 6.08159126 10.68359375 11.12109375 C11.53258699 16.71092534 11.49144205 21.41218388 9.05859375 26.55859375 C1.38895932 34.83372563 1.38895932 34.83372563 -3.890625 35.39453125 C-9.76879506 35.58629088 -14.27609773 35.71937765 -18.84765625 31.73046875 C-22.8023462 27.39713827 -25.57536719 23.50616718 -25.87890625 17.49609375 C-25.62303002 13.11609484 -24.05618171 10.5653829 -21.31640625 7.12109375 C-20.84203125 6.23421875 -20.36765625 5.34734375 -19.87890625 4.43359375 C-15.41626581 -2.1711141 -7.10948868 -2.69752943 0 0 Z " fill="#20262E" transform="translate(276.31640625,117.87890625)"/>
<path d="M0 0 C4.87963585 3.43792526 9.3033593 8.00627312 10.75 13.9375 C11.14968525 18.26452732 11.38661181 22.29646465 8.75 25.9375 C4.90286636 30.21209294 1.07854316 34.38614623 -4.796875 35.359375 C-11.50485884 35.69292116 -16.21510338 34.46519574 -21.25 29.9375 C-25.35429296 24.50924157 -25.93781534 18.57491805 -25.25 11.9375 C-23.75 8.375 -23.75 8.375 -22.25 5.9375 C-21.59 5.9375 -20.93 5.9375 -20.25 5.9375 C-20.023125 5.339375 -19.79625 4.74125 -19.5625 4.125 C-15.38297337 -2.84087772 -6.89504468 -2.25414922 0 0 Z " fill="#1E242C" transform="translate(590.25,118.0625)"/>
<path d="M0 0 C4.86473903 4.74312055 7.78649898 7.86285244 8 14.9375 C7.7155478 20.40197651 6.98812551 24.82700766 3.0703125 28.9375 C-2.05249938 33.42314622 -6.23869971 33.74863079 -12.78125 33.63671875 C-17.43522413 33.29569478 -19.98726352 32.03058968 -23.19140625 28.65625 C-27.33337712 23.35145204 -28.31731631 18.85364137 -27.9609375 12.17578125 C-27.33222597 8.44080853 -26.02165315 6.23933683 -23.5 3.4375 C-22.819375 2.674375 -22.13875 1.91125 -21.4375 1.125 C-16.06402043 -3.55512737 -6.11732915 -2.73095051 0 0 Z " fill="#20252C" transform="translate(382.5,119.5625)"/>
<path d="M0 0 C4.76954375 2.73364632 7.69363738 6.52636277 9.8125 11.5625 C10.81696701 16.34050524 10.84528627 20.46179868 8.6640625 24.8984375 C5.74080438 29.05905355 2.47736747 32.45010718 -2.1875 34.5625 C-7.00629521 35.18084098 -11.42610478 35.22791597 -16 33.5 C-20.60886668 29.41786094 -24.67734555 25.50166724 -25.49609375 19.1796875 C-25.80253054 12.66094133 -24.89027159 8.59565691 -20.88671875 3.37890625 C-15.26477202 -2.63076095 -7.34060136 -3.05975353 0 0 Z " fill="#20272D" transform="translate(518.1875,118.4375)"/>
<path d="M0 0 C4.95 0 9.9 0 15 0 C15 19.8 15 39.6 15 60 C10.05 60 5.1 60 0 60 C0 40.2 0 20.4 0 0 Z " fill="#F3F4F4" transform="translate(315,105)"/>
<path d="M0 0 C0.66 0.33 1.32 0.66 2 1 C2 2.65 2 4.3 2 6 C1.01 6.33 0.02 6.66 -1 7 C-2.01187895 8.65948148 -3.0126546 10.32580562 -4 12 C-4.66 12 -5.32 12 -6 12 C-6.20625 12.61875 -6.4125 13.2375 -6.625 13.875 C-8 16 -8 16 -10.5 17.25 C-19.18827442 19.11177309 -28.2329295 17.74613366 -37 17 C-37 21.95 -37 26.9 -37 32 C-35.68 32 -34.36 32 -33 32 C-33 32.99 -33 33.98 -33 35 C-32.34 35 -31.68 35 -31 35 C-31 35.66 -31 36.32 -31 37 C-30.4225 37.04125 -29.845 37.0825 -29.25 37.125 C-25.81038902 38.46262649 -24.7586373 40.85957625 -23 44 C-23 44.99 -23 45.98 -23 47 C-22.443125 47.061875 -21.88625 47.12375 -21.3125 47.1875 C-18.01879217 48.3447487 -16.40495246 50.48318929 -14 53 C-12.1385104 54.58226616 -10.25564047 56.13243552 -8.35546875 57.66796875 C-7.90816406 58.10753906 -7.46085937 58.54710937 -7 59 C-7 59.66 -7 60.32 -7 61 C-0.53205867 62.51233701 5.35590042 63.21432579 12 63 C12 62.34 12 61.68 12 61 C11.4225 60.773125 10.845 60.54625 10.25 60.3125 C5.35030658 57.4543455 3.48084077 53.3063461 2 48 C7.24284116 52.3690343 12.51941304 56.83277764 17 62 C17 62.66 17 63.32 17 64 C17.99 64.33 18.98 64.66 20 65 C20 65.66 20 66.32 20 67 C-4.72177016 68.1188658 -4.72177016 68.1188658 -12 62 C-12.66796875 59.9296875 -12.66796875 59.9296875 -13 58 C-13.98020375 56.9805881 -14.97803008 55.97753644 -16 55 C-16 54.34 -16 53.68 -16 53 C-16.5775 52.71125 -17.155 52.4225 -17.75 52.125 C-18.4925 51.75375 -19.235 51.3825 -20 51 C-20.680625 50.731875 -21.36125 50.46375 -22.0625 50.1875 C-24.68020694 48.58309897 -25.46411337 46.65826533 -27 44 C-30.23840864 39.71663973 -33.23282354 36.58789579 -38 34 C-39.59412284 30.81175432 -39.10174735 27.37103338 -39.0625 23.875 C-39.05798828 23.12089844 -39.05347656 22.36679688 -39.04882812 21.58984375 C-39.03703499 19.72652873 -39.01909942 17.86325445 -39 16 C-38.34515625 15.9906543 -37.6903125 15.98130859 -37.015625 15.97167969 C-34.00969095 15.9175474 -31.00524225 15.83398611 -28 15.75 C-26.97003906 15.73582031 -25.94007813 15.72164062 -24.87890625 15.70703125 C-17.10381842 15.45941699 -11.26400277 14.34989758 -5.625 8.5625 C-4.06125373 6.09659242 -3.05430372 3.7110667 -2 1 C-1.34 0.67 -0.68 0.34 0 0 Z " fill="#288CBB" transform="translate(154,117)"/>
<path d="M0 0 C3.74014904 1.90050973 5.6779249 4.51688736 8 8 C8 9.65 8 11.3 8 13 C-2.56 13 -13.12 13 -24 13 C-23 5 -23 5 -21.42578125 2.87109375 C-14.47970679 -1.84093828 -8.08186257 -1.90917929 0 0 Z " fill="#282D33" transform="translate(664,117)"/>
<path d="M0 0 C7.08007025 -0.02549283 14.16012852 -0.04292658 21.24023438 -0.05493164 C23.64551231 -0.05993994 26.05078724 -0.06674848 28.45605469 -0.07543945 C31.92643989 -0.08765912 35.3967846 -0.09326349 38.8671875 -0.09765625 C39.93113739 -0.10281754 40.99508728 -0.10797882 42.09127808 -0.11329651 C52.033547 -0.11403252 60.27449095 -0.00908853 69 5 C69 5.66 69 6.32 69 7 C67.84918945 6.71995117 66.69837891 6.43990234 65.51269531 6.15136719 C51.53245825 2.94749446 38.05401458 2.34719827 23.75 2.25 C16.2425 2.1675 8.735 2.085 1 2 C1 24.77 1 47.54 1 71 C0.01 71 -0.98 71 -2 71 C-2 48.23 -2 25.46 -2 2 C-1.34 2 -0.68 2 0 2 C0 1.34 0 0.68 0 0 Z " fill="#133C52" transform="translate(83,64)"/>
<path d="M0 0 C2.625 2 2.625 2 4 5 C4.3906748 9.66316088 3.88918414 12.92774853 0.875 16.5625 C-2.77439606 18.38719803 -4.96443968 18.57650862 -9 18 C-11.75329021 16.20437595 -13.52627461 14.94745078 -15 12 C-15.39447548 7.81855989 -15.45035186 5.69053952 -13.125 2.125 C-9.08246997 -1.91753003 -5.31199055 -1.33741606 0 0 Z " fill="#F0F1F2" transform="translate(328,79)"/>
<path d="M0 0 C6.726066 -0.02540029 13.45211957 -0.04288805 20.17822266 -0.05493164 C22.46533673 -0.05995364 24.75244761 -0.06677247 27.03955078 -0.07543945 C30.33106273 -0.08759845 33.62253215 -0.09324973 36.9140625 -0.09765625 C37.93303619 -0.10281754 38.95200989 -0.10797882 40.00186157 -0.11329651 C44.78394261 -0.11367254 49.29863529 -0.0064403 54 1 C54 1.33 54 1.66 54 2 C36.84 2 19.68 2 2 2 C2 24.11 2 46.22 2 69 C3.65 69.66 5.3 70.32 7 71 C7 71.99 7 72.98 7 74 C3.52177388 72.50933166 1.22538019 71.09392664 -1 68 C-1.58682097 64.26847728 -1.48765647 60.56633381 -1.42578125 56.796875 C-1.42249313 55.68628723 -1.41920502 54.57569946 -1.41581726 53.43145752 C-1.40005992 49.87057881 -1.35608094 46.31063515 -1.3125 42.75 C-1.30100452 40.39844532 -1.29122058 38.04688161 -1.28320312 35.6953125 C-1.21937331 23.76573971 -0.96541512 11.8935512 0 0 Z " fill="#3393C0" transform="translate(84,66)"/>
<path d="M0 0 C8.43352347 1.20478907 14.25026662 4.51698542 19.7578125 11.1015625 C21 13 21 13 21 15 C0.87 15 -19.26 15 -40 15 C-40 14.34 -40 13.68 -40 13 C-21.32343398 12.26773839 -2.69445017 11.84473048 16 12 C12.92654002 8.62068599 9.73065066 6.52878014 5.75 4.3125 C3.81890483 3.23376621 1.8975348 2.13673075 0 1 C0 0.67 0 0.34 0 0 Z " fill="#2389B7" transform="translate(144,69)"/>
<path d="M0 0 C12.21 0 24.42 0 37 0 C33.61088871 9.0376301 33.61088871 9.0376301 30.625 11.375 C30.06039062 11.83648437 29.49578125 12.29796875 28.9140625 12.7734375 C24.82938104 15.39096807 21.30659451 16.24923569 16.48046875 16.1953125 C14.9480957 16.18564453 14.9480957 16.18564453 13.38476562 16.17578125 C12.32966797 16.15902344 11.27457031 16.14226562 10.1875 16.125 C9.11306641 16.11597656 8.03863281 16.10695312 6.93164062 16.09765625 C4.28753146 16.07415306 1.64388128 16.04129575 -1 16 C-1 15.34 -1 14.68 -1 14 C-0.34515625 13.96559814 0.3096875 13.93119629 0.984375 13.89575195 C3.99141592 13.72453538 6.99516923 13.51878547 10 13.3125 C11.02996094 13.25900391 12.05992187 13.20550781 13.12109375 13.15039062 C19.80713533 12.66064873 24.85319642 11.48670839 30 7 C30.33 6.34 30.66 5.68 31 5 C31.99 5 32.98 5 34 5 C34 4.01 34 3.02 34 2 C23.11 2 12.22 2 1 2 C0.67 1.34 0.34 0.68 0 0 Z " fill="#08314C" transform="translate(116,117)"/>
<path d="M0 0 C1.51223648 0.00666183 1.51223648 0.00666183 3.05502319 0.01345825 C4.19605499 0.01360931 5.33708679 0.01376038 6.51269531 0.01391602 C8.36741959 0.02939987 8.36741959 0.02939987 10.25961304 0.04519653 C12.15313004 0.04944138 12.15313004 0.04944138 14.0848999 0.05377197 C17.44201998 0.06308772 20.79886965 0.08106068 24.15591431 0.10317993 C27.58108176 0.12363353 31.00627713 0.13277264 34.43148804 0.14285278 C41.15291724 0.16494445 47.87421827 0.19844527 54.59555054 0.24050903 C55.97896881 3.54710739 56.8453807 5.92898631 56.64242554 9.52566528 C56.59988647 10.3036145 56.55734741 11.08156372 56.51351929 11.88308716 C56.4580896 12.68166138 56.40265991 13.4802356 56.34555054 14.30300903 C56.3055896 15.10545044 56.26562866 15.90789185 56.22445679 16.73464966 C55.97557576 20.78737442 55.59994541 23.64299366 53.59555054 27.24050903 C52.93555054 27.24050903 52.27555054 27.24050903 51.59555054 27.24050903 C52.25555054 18.99050903 52.91555054 10.74050903 53.59555054 2.24050903 C34.45555054 2.24050903 15.31555054 2.24050903 -4.40444946 2.24050903 C-2.40444946 0.24050903 -2.40444946 0.24050903 0 0 Z " fill="#092F4B" transform="translate(119.40444946289063,96.75949096679688)"/>
<path d="M0 0 C7.08007025 -0.02549283 14.16012852 -0.04292658 21.24023438 -0.05493164 C23.64551231 -0.05993994 26.05078724 -0.06674848 28.45605469 -0.07543945 C31.92643989 -0.08765912 35.3967846 -0.09326349 38.8671875 -0.09765625 C39.93113739 -0.10281754 40.99508728 -0.10797882 42.09127808 -0.11329651 C52.033547 -0.11403252 60.27449095 -0.00908853 69 5 C69 5.66 69 6.32 69 7 C67.85499023 6.71995117 66.70998047 6.43990234 65.53027344 6.15136719 C51.39784215 2.9015925 37.70762549 2.34181478 23.25 2.25 C20.9804469 2.22175638 18.71091424 2.19181773 16.44140625 2.16015625 C10.96101818 2.08730511 5.48075347 2.03508706 0 2 C0 1.34 0 0.68 0 0 Z " fill="#062942" transform="translate(83,64)"/>
<path d="M0 0 C19.14 0 38.28 0 58 0 C58 4.95 58 9.9 58 15 C57.67 15 57.34 15 57 15 C57 10.71 57 6.42 57 2 C55.50835327 2.00870117 55.50835327 2.00870117 53.98657227 2.01757812 C42.62880071 2.06240202 31.29003757 1.82457605 19.9375 1.5 C18.18425066 1.45160986 16.43099545 1.40343179 14.67773438 1.35546875 C10.45175164 1.23941109 6.2258575 1.12052814 2 1 C2.16298584 2.26328125 2.32597168 3.5265625 2.49389648 4.828125 C2.89126972 7.90811134 3.1110987 10.8896834 3.0625 14 C3.05347656 14.763125 3.04445313 15.52625 3.03515625 16.3125 C3.02355469 16.869375 3.01195313 17.42625 3 18 C2.01 18 1.02 18 0 18 C0 12.06 0 6.12 0 0 Z " fill="#3188B3" transform="translate(115,99)"/>
<path d="M0 0 C0.33 0 0.66 0 1 0 C1 9.9 1 19.8 1 30 C-4 27 -4 27 -5 25 C-4.96281809 21.71627129 -4.57229377 18.45417761 -4.25 15.1875 C-4.17523438 14.28451172 -4.10046875 13.38152344 -4.0234375 12.45117188 C-3.55656695 7.6374536 -3.11529058 3.91050949 0 0 Z " fill="#2A2F33" transform="translate(389,81)"/>
<path d="M0 0 C0.33 0 0.66 0 1 0 C1 22.11 1 44.22 1 67 C-4.65889029 64.73644388 -4.65889029 64.73644388 -7.3125 61.5 C-7.82425781 60.8915625 -8.33601563 60.283125 -8.86328125 59.65625 C-10 58 -10 58 -10 56 C-9.01 56 -8.02 56 -7 56 C-7 56.66 -7 57.32 -7 58 C-5.68 58.33 -4.36 58.66 -3 59 C-3 59.66 -3 60.32 -3 61 C-2.34 61 -1.68 61 -1 61 C-0.67 40.87 -0.34 20.74 0 0 Z " fill="#2B90BA" transform="translate(101,84)"/>
<path d="M0 0 C0.66 0 1.32 0 2 0 C0.4169423 4.2742558 -2.50568404 6.26531794 -6 9 C-5.690625 9.598125 -5.38125 10.19625 -5.0625 10.8125 C-4 13 -4 13 -3 16 C-0.98491642 16.73323796 -0.98491642 16.73323796 1 17 C1 18.98 1 20.96 1 23 C-3.7682979 20.49036952 -3.7682979 20.49036952 -4.90625 18.08203125 C-6.59450362 14.86831989 -9.36177908 13.44948272 -12.3203125 11.46484375 C-12.87460938 10.98144531 -13.42890625 10.49804688 -14 10 C-14 9.01 -14 8.02 -14 7 C-13.40832031 6.80664062 -12.81664062 6.61328125 -12.20703125 6.4140625 C-8.0853355 5.05585281 -4.0049476 3.67949415 0 2 C0 1.34 0 0.68 0 0 Z " fill="#102A38" transform="translate(156,142)"/>
<path d="M0 0 C0.66 0.33 1.32 0.66 2 1 C2 2.65 2 4.3 2 6 C1.01 6.33 0.02 6.66 -1 7 C-2.01187895 8.65948148 -3.0126546 10.32580562 -4 12 C-4.66 12 -5.32 12 -6 12 C-6.309375 12.928125 -6.309375 12.928125 -6.625 13.875 C-8 16 -8 16 -10.5 17.25 C-19.18370375 19.11079366 -28.23437017 17.76939698 -37 17 C-37 16.67 -37 16.34 -37 16 C-36.40574219 15.9906543 -35.81148438 15.98130859 -35.19921875 15.97167969 C-32.46535355 15.91747007 -29.73310801 15.83392722 -27 15.75 C-26.06542969 15.73582031 -25.13085938 15.72164062 -24.16796875 15.70703125 C-16.70318586 15.44602486 -10.94101649 14.01841166 -5.625 8.5625 C-4.06125373 6.09659242 -3.05430372 3.7110667 -2 1 C-1.34 0.67 -0.68 0.34 0 0 Z " fill="#2492C0" transform="translate(154,117)"/>
<path d="M0 0 C5 2 5 2 7.03125 3.03125 C11.40997054 4.46009565 15.73272416 4.46964365 20.3125 4.625 C21.24384766 4.66367188 22.17519531 4.70234375 23.13476562 4.7421875 C25.42298407 4.83606313 27.71120295 4.92174509 30 5 C29.67 5.99 29.34 6.98 29 8 C12.91020844 10.42864778 12.91020844 10.42864778 6.5625 7.3125 C4.04537025 5.04094388 1.98356957 2.74648095 0 0 Z " fill="#0D273C" transform="translate(143,179)"/>
<path d="M0 0 C0.70954834 -0.01289062 1.41909668 -0.02578125 2.15014648 -0.0390625 C6.1764862 -0.04675278 9.25238567 0.40438439 12.875 2.1875 C12.215 3.1775 11.555 4.1675 10.875 5.1875 C10.875 4.5275 10.875 3.8675 10.875 3.1875 C-0.675 3.1875 -12.225 3.1875 -24.125 3.1875 C-24.125 2.5275 -24.125 1.8675 -24.125 1.1875 C-16.08453174 0.53209065 -8.06771591 0.0705297 0 0 Z " fill="#2599CF" transform="translate(142.125,113.8125)"/>
<path d="M0 0 C12.21 0 24.42 0 37 0 C33.625 9 33.625 9 29 12 C31.5 7 31.5 7 34 2 C23.11 2 12.22 2 1 2 C0.67 1.34 0.34 0.68 0 0 Z " fill="#093A54" transform="translate(116,117)"/>
<path d="M0 0 C0.66 0 1.32 0 2 0 C1.64646027 6.41422074 -0.67399768 10.222066 -4.375 15.375 C-4.87 16.09816406 -5.365 16.82132813 -5.875 17.56640625 C-9.59234056 22.86411352 -9.59234056 22.86411352 -13 24 C-12.29558607 20.8301373 -11.54885258 17.86537728 -10 15 C-8.33333333 14.66666667 -6.66666667 14.33333333 -5 14 C-3.72674137 11.9132056 -3.72674137 11.9132056 -3 9 C-2.46215961 7.39454642 -1.92025556 5.79045036 -1.375 4.1875 C-0.91519488 2.7921508 -0.45636536 1.396478 0 0 Z " fill="#2C8CBB" transform="translate(170,118)"/>
<path d="M0 0 C0.66 0 1.32 0 2 0 C2 4.95 2 9.9 2 15 C3.32 15.33 4.64 15.66 6 16 C5.01 17.32 4.02 18.64 3 20 C2.34 18.68 1.68 17.36 1 16 C-1.97 16 -4.94 16 -8 16 C-4 14 -4 14 0 14 C0 9.38 0 4.76 0 0 Z " fill="#6B6F72" transform="translate(234,104)"/>
<path d="M0 0 C0.66 0.33 1.32 0.66 2 1 C2 1.66 2 2.32 2 3 C2.99 3.33 3.98 3.66 5 4 C5 4.66 5 5.32 5 6 C1.56257082 6.05802698 -1.87473253 6.09360486 -5.3125 6.125 C-6.28896484 6.14175781 -7.26542969 6.15851563 -8.27148438 6.17578125 C-9.20927734 6.18222656 -10.14707031 6.18867188 -11.11328125 6.1953125 C-11.97735596 6.20578613 -12.84143066 6.21625977 -13.73168945 6.22705078 C-16 6 -16 6 -19 4 C-17.87980469 3.93941406 -16.75960937 3.87882813 -15.60546875 3.81640625 C-14.13280016 3.73198576 -12.66014456 3.64733851 -11.1875 3.5625 C-10.44951172 3.52318359 -9.71152344 3.48386719 -8.95117188 3.44335938 C-5.76928658 3.25618965 -3.03837622 3.01279207 0 2 C0 1.34 0 0.68 0 0 Z " fill="#2A7BA0" transform="translate(169,178)"/>
<path d="M0 0 C1.65 0 3.3 0 5 0 C5 0.99 5 1.98 5 3 C8.63 3 12.26 3 16 3 C16 3.66 16 4.32 16 5 C7.585 5.495 7.585 5.495 -1 6 C-0.67 4.02 -0.34 2.04 0 0 Z " fill="#40454D" transform="translate(644,99)"/>
<path d="M0 0 C4.90579632 0.42049683 6.7185393 2.47843242 10 6 C11.09588694 6.86476386 12.20011117 7.71906903 13.3125 8.5625 C14.199375 9.366875 15.08625 10.17125 16 11 C16 12.32 16 13.64 16 15 C16.66 15 17.32 15 18 15 C18 15.66 18 16.32 18 17 C15.0625 16.25 15.0625 16.25 12 15 C11.3125 13.0625 11.3125 13.0625 11 11 C10.01979625 9.9805881 9.02196992 8.97753644 8 8 C8 7.34 8 6.68 8 6 C7.4225 5.71125 6.845 5.4225 6.25 5.125 C4.16666667 4.08333333 2.08333333 3.04166667 0 2 C0 1.34 0 0.68 0 0 Z " fill="#2A79A1" transform="translate(130,164)"/>
<path d="M0 0 C0.77947781 2.28748718 1.1114843 3.61326482 0.43359375 5.96484375 C-2.0408752 10.86526266 -4.55433072 13.76678598 -9 17 C-9.66 16.67 -10.32 16.34 -11 16 C-10.54109375 15.34773437 -10.0821875 14.69546875 -9.609375 14.0234375 C-6.3516602 9.38324709 -3.11614247 4.73653655 0 0 Z " fill="#0B3449" transform="translate(170,125)"/>
<path d="M0 0 C5.51588635 2.75794317 9.52375281 5.83019648 13 11 C13 11.66 13 12.32 13 13 C11.68 13 10.36 13 9 13 C8.67 12.01 8.34 11.02 8 10 C7.34 9.67 6.68 9.34 6 9 C6 8.34 6 7.68 6 7 C4.35 7 2.7 7 1 7 C0.67 4.69 0.34 2.38 0 0 Z " fill="#0E3A52" transform="translate(84,136)"/>
<path d="M0 0 C0 3.11227195 -0.45627049 5.94152152 -1 9 C-3.97 9 -6.94 9 -10 9 C-10.33 8.34 -10.66 7.68 -11 7 C-10.28972656 6.57847656 -9.57945312 6.15695313 -8.84765625 5.72265625 C-7.92855469 5.17480469 -7.00945313 4.62695312 -6.0625 4.0625 C-5.14597656 3.51722656 -4.22945312 2.97195312 -3.28515625 2.41015625 C-1.11587323 1.19267827 -1.11587323 1.19267827 0 0 Z " fill="#303339" transform="translate(598,159)"/>
<path d="M0 0 C4.88049925 3.9419417 9.0580583 8.11950075 13 13 C10.875 13.4375 10.875 13.4375 8 13 C3.77382944 9.4351373 1.3125774 5.38156736 0 0 Z " fill="#3093C1" transform="translate(156,165)"/>
<path d="M0 0 C5.61 0.66 11.22 1.32 17 2 C17 2.33 17 2.66 17 3 C11.75614911 4.7479503 7.52677733 5.19392201 2 5 C1.34 3.35 0.68 1.7 0 0 Z " fill="#292E34" transform="translate(433,165)"/>
<path d="M0 0 C4.53336554 2.99373196 7.47592181 5.08468985 10 10 C10.66 10.66 11.32 11.32 12 12 C11.01 12.33 10.02 12.66 9 13 C4.38265443 10.15855657 2.36221548 6.72443096 0 2 C0 1.34 0 0.68 0 0 Z " fill="#2893C5" transform="translate(144,153)"/>
<path d="M0 0 C1.4540625 0.0309375 1.4540625 0.0309375 2.9375 0.0625 C2.34356618 1.35890378 1.73692011 2.64948839 1.125 3.9375 C0.78855469 4.65679687 0.45210937 5.37609375 0.10546875 6.1171875 C-1.0625 8.0625 -1.0625 8.0625 -4.0625 10.0625 C-4.08939216 8.58343108 -4.10884621 7.10422517 -4.125 5.625 C-4.13660156 4.80128906 -4.14820313 3.97757812 -4.16015625 3.12890625 C-4.00103255 -0.23815127 -3.43619093 0.07012635 0 0 Z " fill="#2B3034" transform="translate(555.0625,111.9375)"/>
<path d="M0 0 C0.66 0.33 1.32 0.66 2 1 C0.38685461 2.95221417 -0.47906087 3.91552338 -3.0234375 4.328125 C-3.79945313 4.30234375 -4.57546875 4.2765625 -5.375 4.25 C-6.24640625 4.22421875 -7.1178125 4.1984375 -8.015625 4.171875 C-13.35114645 3.86459366 -18.67619293 3.46729341 -24 3 C-24 2.67 -24 2.34 -24 2 C-23.37955811 1.97494385 -22.75911621 1.9498877 -22.11987305 1.92407227 C-19.30887603 1.80803279 -16.49820759 1.68534241 -13.6875 1.5625 C-12.22280273 1.50352539 -12.22280273 1.50352539 -10.72851562 1.44335938 C-9.79072266 1.40146484 -8.85292969 1.35957031 -7.88671875 1.31640625 C-6.59060669 1.26141968 -6.59060669 1.26141968 -5.26831055 1.20532227 C-2.8352174 1.07252646 -2.8352174 1.07252646 0 0 Z " fill="#3291BF" transform="translate(141,131)"/>
<path d="M0 0 C0.66 0.33 1.32 0.66 2 1 C1.67 2.65 1.34 4.3 1 6 C-0.4540625 6.433125 -0.4540625 6.433125 -1.9375 6.875 C-5.10664203 7.64214682 -5.10664203 7.64214682 -6 10 C-5.5020163 6.26512223 -5.12508244 4.18762365 -3 1 C-2.01 0.67 -1.02 0.34 0 0 Z " fill="#2E3338" transform="translate(222,122)"/>
<path d="M0 0 C-4.73999811 3.94999843 -7.70437864 6.34975674 -14 6 C-12.29904295 3.16507158 -11.20133326 2.0875362 -8.125 0.75 C-5.26226378 0.06294331 -2.92456849 -0.17203344 0 0 Z " fill="#2C8CBE" transform="translate(156,143)"/>
<path d="M0 0 C1.19109375 0.10054688 1.19109375 0.10054688 2.40625 0.203125 C4.5 0.75 4.5 0.75 6.5 3.75 C3.80864154 5.09567923 2.36123106 4.52224621 -0.5625 3.9375 C-1.91021484 3.68033203 -1.91021484 3.68033203 -3.28515625 3.41796875 C-4.01605469 3.19753906 -4.74695313 2.97710937 -5.5 2.75 C-5.83 2.09 -6.16 1.43 -6.5 0.75 C-4.04048544 -0.47975728 -2.71743376 -0.26468511 0 0 Z M-9.5 3.75 C-8.51 4.245 -8.51 4.245 -7.5 4.75 C-8.49 5.245 -8.49 5.245 -9.5 5.75 C-9.5 5.09 -9.5 4.43 -9.5 3.75 Z " fill="#D7DADD" transform="translate(323.5,78.25)"/>
<path d="M0 0 C4.08055151 0.50547372 5.66272295 2.50088882 8.25 5.5625 C8.95640625 6.38878906 9.6628125 7.21507812 10.390625 8.06640625 C10.92171875 8.70449219 11.4528125 9.34257812 12 10 C11.67 10.66 11.34 11.32 11 12 C10.29875 11.278125 9.5975 10.55625 8.875 9.8125 C6.91006927 7.83067874 4.86821544 6.05292847 2.6875 4.3125 C1.800625 3.549375 0.91375 2.78625 0 2 C0 1.34 0 0.68 0 0 Z " fill="#0C3550" transform="translate(118,153)"/>
<path d="M0 0 C-0.66 0.66 -1.32 1.32 -2 2 C-1.67801034 5.09926819 -1.67801034 5.09926819 -1 8 C-2.32 8 -3.64 8 -5 8 C-5 7.34 -5 6.68 -5 6 C-5.66 6 -6.32 6 -7 6 C-6.67 4.02 -6.34 2.04 -6 0 C-2.25 -1.125 -2.25 -1.125 0 0 Z " fill="#1D98CF" transform="translate(145,146)"/>
<path d="M0 0 C4.95839497 4.79844675 4.95839497 4.79844675 5.09765625 8.8203125 C5.08605469 9.91085938 5.07445312 11.00140625 5.0625 12.125 C5.05347656 13.22070312 5.04445313 14.31640625 5.03515625 15.4453125 C5.02355469 16.28835937 5.01195312 17.13140625 5 18 C4.67 18 4.34 18 4 18 C4 14.7 4 11.4 4 8 C2.68 7.34 1.36 6.68 0 6 C0 4.02 0 2.04 0 0 Z " fill="#505459" transform="translate(282,123)"/>
<path d="M0 0 C0 0.33 0 0.66 0 1 C-1.2065625 1.185625 -1.2065625 1.185625 -2.4375 1.375 C-3.283125 1.58125 -4.12875 1.7875 -5 2 C-5.33 2.66 -5.66 3.32 -6 4 C-8.31847874 4.7166207 -10.65319703 5.38242027 -13 6 C-13.99 6.495 -13.99 6.495 -15 7 C-14.00449135 4.3754772 -13.06036546 3.04971273 -10.875 1.25 C-7.01724826 -0.42728337 -4.18486798 -0.2127899 0 0 Z M-17 7 C-16.01 7.495 -16.01 7.495 -15 8 C-15.99 8.495 -15.99 8.495 -17 9 C-17 8.34 -17 7.68 -17 7 Z " fill="#484C52" transform="translate(585,117)"/>
<path d="M0 0 C0 0.66 0 1.32 0 2 C-1.65 2.33 -3.3 2.66 -5 3 C-5 3.66 -5 4.32 -5 5 C-6.65 5.33 -8.3 5.66 -10 6 C-10 3 -10 3 -8.375 1.3125 C-5.41801336 -0.32162419 -3.32820054 -0.22692276 0 0 Z " fill="#E2E4E6" transform="translate(648,105)"/>
<path d="M0 0 C1.32 1.32 2.64 2.64 4 4 C3.3125 5.9375 3.3125 5.9375 2 8 C-0.625 8.75 -0.625 8.75 -3 9 C-2.01 6.03 -1.02 3.06 0 0 Z " fill="#2D3138" transform="translate(479,148)"/>
<path d="M0 0 C0.33 0 0.66 0 1 0 C1 4.29 1 8.58 1 13 C-0.65 12.67 -2.3 12.34 -4 12 C-4 11.34 -4 10.68 -4 10 C-3.34 10 -2.68 10 -2 10 C-1.34 6.7 -0.68 3.4 0 0 Z " fill="#585C61" transform="translate(549,128)"/>
<path d="M0 0 C5.26053037 -0.31563182 8.44573816 0.33409063 13 3 C13 3.66 13 4.32 13 5 C8.38 4.01 3.76 3.02 -1 2 C-0.67 1.34 -0.34 0.68 0 0 Z " fill="#0C3855" transform="translate(139,66)"/>
<path d="M0 0 C2.475 0.495 2.475 0.495 5 1 C5.33 2.98 5.66 4.96 6 7 C4.68 7.99 3.36 8.98 2 10 C1.34 9.67 0.68 9.34 0 9 C0.66 8.34 1.32 7.68 2 7 C1.73323796 5.01508358 1.73323796 5.01508358 1 3 C0.67 2.01 0.34 1.02 0 0 Z " fill="#383D42" transform="translate(677,152)"/>
<path d="M0 0 C0.33 0.66 0.66 1.32 1 2 C1.66 2 2.32 2 3 2 C2.67 3.65 2.34 5.3 2 7 C1.34 7 0.68 7 0 7 C0 10.3 0 13.6 0 17 C-0.33 17 -0.66 17 -1 17 C-1.02691685 14.54159395 -1.04679802 12.08348118 -1.0625 9.625 C-1.07087891 8.92632812 -1.07925781 8.22765625 -1.08789062 7.5078125 C-1.11328125 2.2265625 -1.11328125 2.2265625 0 0 Z " fill="#D6D7D9" transform="translate(478,125)"/>
<path d="M0 0 C0.66 1.32 1.32 2.64 2 4 C0.71034824 5.37562854 -0.62689293 6.70766393 -2 8 C-2.66 8 -3.32 8 -4 8 C-4.66 9.32 -5.32 10.64 -6 12 C-6 8.36804504 -5.04546845 7.25286089 -3 4.3125 C-2.443125 3.50425781 -1.88625 2.69601563 -1.3125 1.86328125 C-0.879375 1.24839844 -0.44625 0.63351563 0 0 Z " fill="#D8DBDD" transform="translate(245,111)"/>
<path d="M0 0 C0.66 0 1.32 0 2 0 C0.62299976 2.96584667 -0.67664502 5.67664502 -3 8 C-6.1875 8.25 -6.1875 8.25 -9 8 C-6.47945145 5.29941227 -4.30728879 3.59662217 -1 2 C-0.67 1.34 -0.34 0.68 0 0 Z " fill="#0B2B3F" transform="translate(147,122)"/>
<path d="M0 0 C4.89157798 1.2228945 7.34618634 2.6477456 10 7 C9.67 7.99 9.34 8.98 9 10 C7.49702124 8.52386015 5.99768715 7.04400843 4.5 5.5625 C3.6646875 4.73878906 2.829375 3.91507813 1.96875 3.06640625 C0 1 0 1 0 0 Z " fill="#0F394F" transform="translate(157,165)"/>
<path d="M0 0 C3.53586014 3.17320782 5.58578031 5.16743695 6 10 C0.24739583 5.59375 0.24739583 5.59375 -0.9375 2.75 C-0.958125 2.1725 -0.97875 1.595 -1 1 C-0.67 0.67 -0.34 0.34 0 0 Z " fill="#318DBE" transform="translate(125,154)"/>
<path d="M0 0 C0.99 0 1.98 0 3 0 C3 1.32 3 2.64 3 4 C-2.28 3.67 -7.56 3.34 -13 3 C-13 2.67 -13 2.34 -13 2 C-8.71 2 -4.42 2 0 2 C0 1.34 0 0.68 0 0 Z " fill="#4D5358" transform="translate(274,101)"/>
<path d="M0 0 C0.33 0 0.66 0 1 0 C1.33 1.65 1.66 3.3 2 5 C2.99 5.33 3.98 5.66 5 6 C5 6.66 5 7.32 5 8 C2.69 8 0.38 8 -2 8 C-1.125 1.125 -1.125 1.125 0 0 Z " fill="#383C3F" transform="translate(642,121)"/>
<path d="M0 0 C-3.63107238 3.63107238 -7.97370003 5.26083824 -13 6 C-12.34 5.67 -11.68 5.34 -11 5 C-10.67 4.01 -10.34 3.02 -10 2 C-6.75515269 -0.28341107 -3.87540045 -0.17615457 0 0 Z " fill="#CCCFD2" transform="translate(504,104)"/>
<path d="M0 0 C3.83797544 1.56361962 6.1667627 4.02510083 9 7 C9.763125 7.763125 10.52625 8.52625 11.3125 9.3125 C11.869375 9.869375 12.42625 10.42625 13 11 C12.01 11.33 11.02 11.66 10 12 C8.33032474 10.19019128 6.66417692 8.3773524 5 6.5625 C4.28457031 5.7880957 4.28457031 5.7880957 3.5546875 4.99804688 C0 1.11328125 0 1.11328125 0 0 Z " fill="#0A3656" transform="translate(131,166)"/>
<path d="M0 0 C0.33 0.66 0.66 1.32 1 2 C0.67 2.66 0.34 3.32 0 4 C-5.28 3.67 -10.56 3.34 -16 3 C-16 2.67 -16 2.34 -16 2 C-10.72 1.34 -5.44 0.68 0 0 Z " fill="#40444C" transform="translate(523,165)"/>
<path d="M0 0 C-4.30769231 4.92307692 -4.30769231 4.92307692 -7.8125 5.3125 C-8.8953125 5.1578125 -8.8953125 5.1578125 -10 5 C-9 2 -9 2 -7.25 0.8125 C-4.70039426 -0.10819096 -2.69076919 -0.14948718 0 0 Z " fill="#DADDDD" transform="translate(470,120)"/>
<path d="M0 0 C0.99 0.33 1.98 0.66 3 1 C3 2.65 3 4.3 3 6 C2.01 5.67 1.02 5.34 0 5 C-1.32 5 -2.64 5 -4 5 C-2.68 3.35 -1.36 1.7 0 0 Z " fill="#D5D9DC" transform="translate(634,110)"/>
<path d="M0 0 C-2.40371442 2.90975956 -4.25941633 3.64375394 -8 4 C-10.8125 3.5625 -10.8125 3.5625 -13 3 C-4.03773585 -2.01886792 -4.03773585 -2.01886792 0 0 Z " fill="#474C50" transform="translate(464,164)"/>
<path d="M0 0 C0.763125 0.20625 1.52625 0.4125 2.3125 0.625 C0.5 2.625 0.5 2.625 -1.6875 4.625 C-2.6775 4.625 -3.6675 4.625 -4.6875 4.625 C-5.0175 3.635 -5.3475 2.645 -5.6875 1.625 C-2.6875 -0.375 -2.6875 -0.375 0 0 Z " fill="#30343C" transform="translate(382.6875,147.375)"/>
<path d="M0 0 C0.99 0 1.98 0 3 0 C3 0.66 3 1.32 3 2 C4.32 2.33 5.64 2.66 7 3 C7 3.66 7 4.32 7 5 C7.66 5.33 8.32 5.66 9 6 C6.75 6.25 6.75 6.25 4 6 C1.6875 4.125 1.6875 4.125 0 2 C0 1.34 0 0.68 0 0 Z " fill="#2C92BF" transform="translate(91,140)"/>
<path d="M0 0 C1.98 0 3.96 0 6 0 C4.63016497 3.16115776 4.0109362 3.9927092 1 6 C0 5 0 5 -0.0625 2.4375 C-0.041875 1.633125 -0.02125 0.82875 0 0 Z " fill="#DEE1E1" transform="translate(252,121)"/>
<path d="M0 0 C0.66 0 1.32 0 2 0 C0.61043975 3.35810395 -0.82526467 5.18586552 -4 7 C-6.75 7.1875 -6.75 7.1875 -9 7 C-6.14693203 4.67527795 -3.45925163 3.2491742 0 2 C0 1.34 0 0.68 0 0 Z " fill="#0B3954" transform="translate(156,142)"/>
<path d="M0 0 C1.32 0.33 2.64 0.66 4 1 C4 1.66 4 2.32 4 3 C5.32 3.33 6.64 3.66 8 4 C7.67 5.32 7.34 6.64 7 8 C4.35247996 5.42215154 2.05567935 3.08351902 0 0 Z " fill="#0E384D" transform="translate(167,175)"/>
<path d="M0 0 C5.875 3.75 5.875 3.75 7 6 C4.69 5.67 2.38 5.34 0 5 C0 3.35 0 1.7 0 0 Z " fill="#35373D" transform="translate(422,157)"/>
<path d="M0 0 C-1.32 1.32 -2.64 2.64 -4 4 C-4.66 3.34 -5.32 2.68 -6 2 C-8.32275177 1.59952556 -10.65739357 1.2602896 -13 1 C-13 0.67 -13 0.34 -13 0 C-11.20909747 -0.19466332 -9.41723495 -0.38051213 -7.625 -0.5625 C-6.12839844 -0.71912109 -6.12839844 -0.71912109 -4.6015625 -0.87890625 C-2 -1 -2 -1 0 0 Z " fill="#C6C9CB" transform="translate(665,153)"/>
<path d="M0 0 C1.32 0 2.64 0 4 0 C5.06775224 1.96466413 6.06553465 3.96855359 7 6 C6.67 6.66 6.34 7.32 6 8 C1.3125 4.38671875 1.3125 4.38671875 0 3 C0 2.01 0 1.02 0 0 Z " fill="#074460" transform="translate(142,149)"/>
<path d="M0 0 C0.99 0 1.98 0 3 0 C3.1953125 6.0546875 3.1953125 6.0546875 3 8 C2.34 8.66 1.68 9.32 1 10 C0.67 6.7 0.34 3.4 0 0 Z " fill="#494D50" transform="translate(598,132)"/>
<path d="M0 0 C-0.125 1.875 -0.125 1.875 -1 4 C-4.0625 5.25 -4.0625 5.25 -7 6 C-7 5.01 -7 4.02 -7 3 C-2.77777778 0 -2.77777778 0 0 0 Z " fill="#D2D5D8" transform="translate(360,104)"/>
<path d="M0 0 C6.875 3.75 6.875 3.75 8 6 C2.25 5.25 2.25 5.25 0 3 C0 2.01 0 1.02 0 0 Z " fill="#363A3D" transform="translate(245,159)"/>
<path d="M0 0 C0.99 0 1.98 0 3 0 C3 2.31 3 4.62 3 7 C2.67 6.34 2.34 5.68 2 5 C1.01 5 0.02 5 -1 5 C-1.33 4.01 -1.66 3.02 -2 2 C-1.34 1.34 -0.68 0.68 0 0 Z " fill="#464749" transform="translate(284,159)"/>
<path d="M0 0 C0.99 0.33 1.98 0.66 3 1 C2 4 2 4 -0.4375 5.75 C-1.7059375 6.36875 -1.7059375 6.36875 -3 7 C-3.66 6.67 -4.32 6.34 -5 6 C-3.35 4.02 -1.7 2.04 0 0 Z " fill="#D4D7DA" transform="translate(597,144)"/>
<path d="M0 0 C-0.57344937 2.86724686 -0.8614515 3.8614515 -3 6 C-3.99 6 -4.98 6 -6 6 C-3.84615385 0 -3.84615385 0 0 0 Z " fill="#2195CC" transform="translate(148,128)"/>
<path d="M0 0 C-0.1875 1.875 -0.1875 1.875 -1 4 C-3.89111788 5.52164099 -5.71823412 6 -9 6 C-8.07213211 4.99105628 -7.13231567 3.99309093 -6.1875 3 C-5.66542969 2.443125 -5.14335937 1.88625 -4.60546875 1.3125 C-3 0 -3 0 0 0 Z " fill="#373B3F" transform="translate(366,119)"/>
<path d="M0 0 C5.875 2.75 5.875 2.75 7 5 C6.01 5.33 5.02 5.66 4 6 C1.3125 4.5625 1.3125 4.5625 -1 3 C-0.67 2.01 -0.34 1.02 0 0 Z " fill="#DEE2E4" transform="translate(591,105)"/>
<path d="M0 0 C2 2 2 2 2.125 5.625 C2.08375 6.73875 2.0425 7.8525 2 9 C1.01 9.33 0.02 9.66 -1 10 C-0.67 6.7 -0.34 3.4 0 0 Z " fill="#083B57" transform="translate(172,114)"/>
<path d="M0 0 C1.32 0.99 2.64 1.98 4 3 C3.34 4.32 2.68 5.64 2 7 C1.01 6.67 0.02 6.34 -1 6 C-0.67 4.02 -0.34 2.04 0 0 Z " fill="#E0E3E5" transform="translate(470,112)"/>
<path d="M0 0 C1.65 0.99 3.3 1.98 5 3 C4.67 3.99 4.34 4.98 4 6 C1.9375 6.6875 1.9375 6.6875 0 7 C0 4.69 0 2.38 0 0 Z " fill="#E6E7E8" transform="translate(385,108)"/>
<path d="M0 0 C0 1.65 0 3.3 0 5 C-1.65 5 -3.3 5 -5 5 C-5 4.01 -5 3.02 -5 2 C-1.125 0 -1.125 0 0 0 Z " fill="#2E3136" transform="translate(282,162)"/>
<path d="M0 0 C4 4.75 4 4.75 4 7 C2.68 7 1.36 7 0 7 C-0.93423645 3.98968256 -1.04449911 3.13349732 0 0 Z " fill="#35393E" transform="translate(342,150)"/>
<path d="M0 0 C0.33 0 0.66 0 1 0 C1 2.64 1 5.28 1 8 C-0.9375 7.1875 -0.9375 7.1875 -3 6 C-3.33 5.01 -3.66 4.02 -4 3 C-2.68 3 -1.36 3 0 3 C0 2.01 0 1.02 0 0 Z " fill="#3A90B3" transform="translate(100,143)"/>
<path d="M0 0 C0.33 0 0.66 0 1 0 C1.16276042 2.01822917 1.32552083 4.03645833 1.48828125 6.0546875 C1.87393036 8.39519216 1.87393036 8.39519216 5 10 C4.67 10.99 4.34 11.98 4 13 C2 11.5625 2 11.5625 0 9 C-0.35442445 5.97175582 -0.23347235 3.03514061 0 0 Z " fill="#1C99D1" transform="translate(85,124)"/>
<path d="M0 0 C2.125 0.375 2.125 0.375 4 1 C1.87219421 3.34058637 -0.11562221 4.70700306 -3 6 C-2.42655063 3.13275314 -2.1385485 2.1385485 0 0 Z " fill="#34393E" transform="translate(490,106)"/>
<path d="M0 0 C2.31 0.66 4.62 1.32 7 2 C6.67 3.32 6.34 4.64 6 6 C2.535 4.02 2.535 4.02 -1 2 C-0.67 1.34 -0.34 0.68 0 0 Z " fill="#2B2F36" transform="translate(463,105)"/>
<path d="M0 0 C4.75 1.875 4.75 1.875 7 3 C7 3.99 7 4.98 7 6 C4.50638429 4.79618552 2.31856917 3.54571278 0 2 C0 1.34 0 0.68 0 0 Z " fill="#328DB9" transform="translate(84,134)"/>
<path d="M0 0 C0.33 0 0.66 0 1 0 C1 1.98 1 3.96 1 6 C-0.98 6.99 -0.98 6.99 -3 8 C-3 4.41465407 -1.97637955 2.92504174 0 0 Z " fill="#2884B6" transform="translate(151,121)"/>
<path d="M0 0 C1.65 0 3.3 0 5 0 C5 1.98 5 3.96 5 6 C3.31237149 4.3545622 1.6459651 2.68711423 0 1 C0 0.67 0 0.34 0 0 Z " fill="#3B4144" transform="translate(534,112)"/>
<path d="M0 0 C0.94875 0.04125 1.8975 0.0825 2.875 0.125 C1.39 2.105 1.39 2.105 -0.125 4.125 C-2.6 3.135 -2.6 3.135 -5.125 2.125 C-3.125 0.125 -3.125 0.125 0 0 Z " fill="#CCCFD1" transform="translate(259.125,103.875)"/>
<path d="M0 0 C1.98 0.99 3.96 1.98 6 3 C6 4.32 6 5.64 6 7 C5.34 7 4.68 7 4 7 C0 2.52941176 0 2.52941176 0 0 Z " fill="#0F2D44" transform="translate(162,78)"/>
<path d="M0 0 C1.17219543 0.78345715 2.33763668 1.57702836 3.5 2.375 C4.47453125 3.03628906 4.47453125 3.03628906 5.46875 3.7109375 C5.9740625 4.13632813 6.479375 4.56171875 7 5 C7 5.66 7 6.32 7 7 C4.625 6.3125 4.625 6.3125 2 5 C0.6875 2.375 0.6875 2.375 0 0 Z " fill="#358AB3" transform="translate(144,153)"/>
<path d="M0 0 C0.99 0.33 1.98 0.66 3 1 C3 1.99 3 2.98 3 4 C0.69 4 -1.62 4 -4 4 C-2.68 2.68 -1.36 1.36 0 0 Z " fill="#D9DCDC" transform="translate(660,113)"/>
<path d="M0 0 C3.465 1.98 3.465 1.98 7 4 C7 4.33 7 4.66 7 5 C4.625 5.125 4.625 5.125 2 5 C1.34 4.34 0.68 3.68 0 3 C0 2.01 0 1.02 0 0 Z " fill="#E2E5E7" transform="translate(670,106)"/>
<path d="M0 0 C0.33 0.66 0.66 1.32 1 2 C0.67 2.99 0.34 3.98 0 5 C-1.65 4.67 -3.3 4.34 -5 4 C-3.36587557 2.29159719 -2.13093906 1.06546953 0 0 Z " fill="#32373A" transform="translate(469,159)"/>
<path d="M0 0 C2.4375 0.75 2.4375 0.75 5 2 C5.8125 4.125 5.8125 4.125 6 6 C1.125 3.375 1.125 3.375 0 0 Z " fill="#0C3D54" transform="translate(151,159)"/>
<path d="M0 0 C1.98 0 3.96 0 6 0 C6.33 1.32 6.66 2.64 7 4 C4.97954558 3.39816251 2.97888961 2.72693904 1 2 C0.67 1.34 0.34 0.68 0 0 Z " fill="#D6D7D8" transform="translate(488,159)"/>
<path d="M0 0 C1.98 0 3.96 0 6 0 C5.67 0.99 5.34 1.98 5 3 C4.01 3.33 3.02 3.66 2 4 C1.34 2.68 0.68 1.36 0 0 Z " fill="#30343B" transform="translate(431,142)"/>
<path d="M0 0 C-1.0975223 2.99324263 -1.67682892 3.84610901 -4.625 5.25 C-5.40875 5.4975 -6.1925 5.745 -7 6 C-5.52522876 2.59668175 -4.14385429 0 0 0 Z " fill="#DEE0E0" transform="translate(564,109)"/>
<path d="M0 0 C0 0.99 0 1.98 0 3 C-1.65 3.33 -3.3 3.66 -5 4 C-5 3.01 -5 2.02 -5 1 C-3 0 -3 0 0 0 Z " fill="#D4D6D9" transform="translate(225,105)"/>
</svg>
